# xmcd
#
# Track frame offsets: 
#        150
#        11920
#        23132
#        34205
#        45362
#        55404
#        66895
#        78205
#        91730
#        107986
#        126861
#
# Disc length: 1792 seconds
#
# Revision: 0
# Processed by: cddbd v1.5.1PL2 Copyright (c) Steve Scherf et al.
# Submitted via: ExactAudioCopy v0.95b3
#
DISCID=8906fe0b
DTITLE=Keith Magel - The Texas Piano Man - Rags To Riches
DYEAR=2005
DGENRE=Instrumental
TTITLE0=Gruene
TTITLE1=Deep Ellum
TTITLE2=Fredricksburg
TTITLE3=Austin
TTITLE4=McDade
TTITLE5=Houston
TTITLE6=San Antonio
TTITLE7=Galveston
TTITLE8=Victoria
TTITLE9=Lubbock
TTITLE10=Howl At The Moon
EXTD=
EXTT0=
EXTT1=
EXTT2=
EXTT3=
EXTT4=
EXTT5=
EXTT6=
EXTT7=
EXTT8=
EXTT9=
EXTT10=
PLAYORDER=
